<?xml version="1.0" encoding="UTF-8"?>
<svg width="93px" height="110px" viewBox="0 0 93 110" version="1.1" xmlns="http://www.w3.org/2000/svg" xmlns:xlink="http://www.w3.org/1999/xlink">
    <!-- Generator: Sketch 63.1 (92452) - https://sketch.com -->
    <title>icon-espuma</title>
    <desc>Created with Sketch.</desc>
    <g id="Page-1" stroke="none" stroke-width="1" fill="none" fill-rule="evenodd">
        <g id="Artboard" transform="translate(-17.000000, -8.000000)">
            <g id="icon-espuma" transform="translate(17.000000, 8.000000)">
                <path d="M37.9514563,-0.00203816412 C36.4660194,-0.00203816412 35.3300971,1.12593592 35.3300971,2.60097895 L35.3300971,8.76111354 C17.2427184,10.1493893 3,25.1604606 3,43.3815805 C3,44.8566235 4.13592233,45.9845976 5.62135922,45.9845976 C7.10679612,45.9845976 8.24271845,44.8566235 8.24271845,43.3815805 C8.24271845,27.1561071 21.6116505,13.8807198 37.9514563,13.8807198 L55.8640777,13.8807198 C56.8252427,16.9175731 59.6206768,19.2599493 63.0284438,19.6070182 L90.1158233,22.5574435 L90.3786408,22.5574435 C90.9902913,22.5574435 91.6893204,22.2964642 92.1262136,21.862628 C92.6504854,21.3420246 93,20.6485643 93,19.9544264 L93,2.60097895 C93,1.82007382 92.6504854,1.12661375 92.1262136,0.69277756 C91.6019417,0.258941373 90.8148524,-0.0888054014 90.1158233,-0.00203816412 L63.0284438,2.94838682 C59.6206768,3.29545577 56.9126214,5.63783226 55.8640777,8.67468556 L40.5728155,8.67468556 L40.5728155,2.60097895 C40.5728155,1.12593592 39.4368932,-0.00203816412 37.9514563,-0.00203816412 Z M88,4.98459759 L88,16.9845976 L63.8748738,14.2977172 C62.2200351,14.1185918 61,12.6862884 61,10.9845976 C61,9.28290658 62.2200351,7.85060318 63.8748738,7.67147782 L88,4.98459759 Z M37.5,20.9845976 C25.0290698,20.9845976 14.8255814,31.1934211 14.8255814,43.6708721 L14.8255814,104.749303 L2.61627907,104.749303 C1.13372093,104.749303 0,105.883617 0,107.366951 C0,108.850284 1.13372093,109.984598 2.61627907,109.984598 L72.3837209,109.984598 C73.8662791,109.984598 75,108.850284 75,107.366951 C75,105.883617 73.8662791,104.749303 72.3837209,104.749303 L60.1744186,104.749303 L60.1744186,43.6708721 C60.1744186,31.1934211 49.9709302,20.9845976 37.5,20.9845976 Z M37.5,25.9845976 C47.125,25.9845976 55,33.8845976 55,43.5401531 L55,104.984598 L20,104.984598 L20,43.5401531 C20,33.8845976 27.875,25.9845976 37.5,25.9845976 Z" id="Shape" fill="#FFFFFF" fill-rule="nonzero"></path>
                <rect id="Rectangle" fill="#199817" x="20" y="57" width="35" height="35"></rect>
            </g>
        </g>
    </g>
</svg>