<svg xmlns="http://www.w3.org/2000/svg" viewBox="0 0 93.39 29.48"><defs><style>.cls-1{fill:#fff;}</style></defs><title>bia-service-logo-blanco</title><g id="Capa_2" data-name="Capa 2"><g id="Capa_1-2" data-name="Capa 1"><path class="cls-1" d="M51.79,10.71a18.61,18.61,0,0,0-1.69-.85A3.71,3.71,0,0,0,51,9.25c.33-.33.67-.57.67-.84V3.77a3.79,3.79,0,0,0-1.9-2.6A11.13,11.13,0,0,0,46.87.05H26.05V21.11H48.74s4.36-.68,4.36-4.48v-4A3.31,3.31,0,0,0,51.79,10.71Zm-7.06,6H32.08l0-12.13H44.22a2,2,0,0,1,1.44,1.92c0,2.05-1.44,1.81-1.44,1.81H33.39l2.34,4.58h9s2.5-.1,2.5,1.91C47.23,16.67,44.73,16.73,44.73,16.73Z"/><rect class="cls-1" x="56.12" y="0.08" width="6.17" height="21.07"/><path class="cls-1" d="M64.4,21H71L78.53,6.38l3.76,7.26H75.47l2.42,4.58h6.75l1.53,2.93h6.62S86.11,6.82,83.3,2.37a4.43,4.43,0,0,0-4-2.23H74.77Z"/><path class="cls-1" d="M0,0V29.2H21.56V0ZM10,2.82a4.88,4.88,0,0,1,1.45.54C14,4.77,14.64,7.9,14.71,8.25a1.13,1.13,0,0,1,0,.14c.13,1.32,0,5.29,0,5.29v7.48a3.37,3.37,0,0,1-3-.15V16.56h0V13.47h0s.14-3.59,0-4.78A4.21,4.21,0,0,0,10,6Zm-3.45.35h0V.46h3V2.67h0V6.08h0v6.3a5.59,5.59,0,0,1-3-1.94V6.53h0ZM2.42,9a5.68,5.68,0,0,1,3.72-5.6V6.9a2.38,2.38,0,0,0-.71,1.88,3.71,3.71,0,0,0,1,2.26A5.82,5.82,0,0,0,9.59,13h0l.18,0,1.49.35v3.09h-.07A16.76,16.76,0,0,1,6.58,15,7.17,7.17,0,0,1,2.42,9ZM14.73,28.74h-3V25.39a9.24,9.24,0,0,0,1.72.16,6.29,6.29,0,0,0,1.28-.12Zm1.51-4.38a6.28,6.28,0,0,1-1.38.48h0a8.31,8.31,0,0,1-3.14,0,6.1,6.1,0,0,1-2.39-1.15,6.54,6.54,0,0,1-2.75-5.33c0-.72,0-2.71,0-2.71a10.44,10.44,0,0,0,3,1s-.05,1.4,0,1.93A3.53,3.53,0,0,0,13.36,22c.67,0,2.82-.16,2.82-2,0-1.27-.17-1.89-1-2.37V14.4c2.46.85,3.94,2.17,3.94,5.63A4.77,4.77,0,0,1,16.24,24.36Z"/><path class="cls-1" d="M27.28,29.35a.18.18,0,0,1-.06-.14V25.4H25.91a.2.2,0,0,1-.14-.06.19.19,0,0,1-.05-.13v-.84a.19.19,0,0,1,.05-.13.2.2,0,0,1,.14-.06H30a.18.18,0,0,1,.14.06.15.15,0,0,1,0,.13v.84a.15.15,0,0,1,0,.13.18.18,0,0,1-.14.06H28.65v3.81a.18.18,0,0,1-.06.14.22.22,0,0,1-.14,0h-1A.22.22,0,0,1,27.28,29.35Z"/><path class="cls-1" d="M30.87,29.34a.16.16,0,0,1-.06-.13V24.37a.19.19,0,0,1,.05-.13.18.18,0,0,1,.14-.06h2a2.39,2.39,0,0,1,1.54.45,1.53,1.53,0,0,1,.55,1.26,1.6,1.6,0,0,1-.24.89,1.55,1.55,0,0,1-.67.56l1,1.82a.13.13,0,0,1,0,.08.15.15,0,0,1,0,.11.16.16,0,0,1-.11,0h-1a.32.32,0,0,1-.31-.2l-.82-1.62h-.72v1.63a.22.22,0,0,1-.05.14.24.24,0,0,1-.14,0H31A.16.16,0,0,1,30.87,29.34ZM33,26.48a.67.67,0,0,0,.49-.16.57.57,0,0,0,.17-.44.61.61,0,0,0-.17-.45.64.64,0,0,0-.49-.18h-.83v1.23Z"/><path class="cls-1" d="M35.6,29.35a.13.13,0,0,1-.05-.11v-.06l1.74-4.78a.29.29,0,0,1,.3-.22h1.16a.29.29,0,0,1,.3.22l1.74,4.78s0,0,0,.06a.17.17,0,0,1-.16.16h-1a.25.25,0,0,1-.25-.16l-.27-.73H37.2l-.27.73a.26.26,0,0,1-.26.16h-1A.14.14,0,0,1,35.6,29.35Zm1.91-2h1.33l-.67-1.9Z"/><path class="cls-1" d="M41.42,29.34a.16.16,0,0,1-.06-.13V24.37a.18.18,0,0,1,.06-.14.21.21,0,0,1,.13-.05h1.07a.19.19,0,0,1,.13.05.17.17,0,0,1,0,.14v4.84a.15.15,0,0,1,0,.13.16.16,0,0,1-.13.06H41.55A.18.18,0,0,1,41.42,29.34Z"/><path class="cls-1" d="M43.87,29.34a.19.19,0,0,1,0-.13V24.37a.19.19,0,0,1,0-.13.16.16,0,0,1,.13-.06h.85a.27.27,0,0,1,.25.14l1.76,2.78V24.37a.19.19,0,0,1,0-.13.18.18,0,0,1,.14-.06H48a.18.18,0,0,1,.14.06.19.19,0,0,1,0,.13v4.84a.19.19,0,0,1,0,.13.18.18,0,0,1-.14.06h-.84a.27.27,0,0,1-.25-.14l-1.75-2.67v2.62a.18.18,0,0,1-.06.14.22.22,0,0,1-.14,0H44A.18.18,0,0,1,43.87,29.34Z"/><path class="cls-1" d="M49.25,29.34a.15.15,0,0,1,0-.13V24.37a.17.17,0,0,1,0-.14.21.21,0,0,1,.13-.05h1.07a.19.19,0,0,1,.13.05.17.17,0,0,1,.05.14v4.84a.15.15,0,0,1-.05.13.16.16,0,0,1-.13.06H49.38A.18.18,0,0,1,49.25,29.34Z"/><path class="cls-1" d="M51.71,29.34a.16.16,0,0,1-.06-.13V24.37a.19.19,0,0,1,.05-.13.18.18,0,0,1,.14-.06h.84a.27.27,0,0,1,.25.14l1.76,2.78V24.37a.19.19,0,0,1,.05-.13.18.18,0,0,1,.14-.06h.95a.16.16,0,0,1,.13.06.19.19,0,0,1,0,.13v4.84a.19.19,0,0,1,0,.13.16.16,0,0,1-.13.06H55a.27.27,0,0,1-.25-.14L53,26.59v2.62a.18.18,0,0,1-.06.14.22.22,0,0,1-.14,0h-.94A.16.16,0,0,1,51.71,29.34Z"/><path class="cls-1" d="M57.52,29a2,2,0,0,1-.65-1.5c0-.14,0-.37,0-.68s0-.54,0-.69a1.91,1.91,0,0,1,.65-1.46,2.6,2.6,0,0,1,1.69-.51,3,3,0,0,1,1.25.23,1.9,1.9,0,0,1,.81.59,1.27,1.27,0,0,1,.3.74.18.18,0,0,1,0,.12.17.17,0,0,1-.12.05H60.25a.21.21,0,0,1-.12,0,.59.59,0,0,1-.08-.08.81.81,0,0,0-.28-.36.91.91,0,0,0-.56-.15.81.81,0,0,0-.89.9c0,.14,0,.35,0,.64s0,.51,0,.65c0,.63.32.95.91.95a1,1,0,0,0,.68-.22.81.81,0,0,0,.26-.66v-.13H59.5a.2.2,0,0,1-.14-.06.19.19,0,0,1,0-.13v-.59a.19.19,0,0,1,0-.13.2.2,0,0,1,.14-.06h1.9a.2.2,0,0,1,.14.06.19.19,0,0,1,.05.13v.87a2,2,0,0,1-.29,1.09,1.9,1.9,0,0,1-.83.7,3.08,3.08,0,0,1-1.26.25A2.52,2.52,0,0,1,57.52,29Z"/><path class="cls-1" d="M64.47,29a2,2,0,0,1-.64-1.51c0-.13,0-.35,0-.65s0-.53,0-.67a2,2,0,0,1,.65-1.5,2.49,2.49,0,0,1,1.67-.52,3.19,3.19,0,0,1,1.19.21,1.9,1.9,0,0,1,.83.63,1.66,1.66,0,0,1,.32,1,.16.16,0,0,1,0,.11.15.15,0,0,1-.11,0H67.27a.21.21,0,0,1-.24-.19.92.92,0,0,0-.32-.51,1,1,0,0,0-.56-.15c-.56,0-.85.32-.87.94,0,.14,0,.34,0,.62s0,.49,0,.64c0,.62.31.94.87.94a1,1,0,0,0,.56-.15A.87.87,0,0,0,67,27.7a.3.3,0,0,1,.08-.15.25.25,0,0,1,.16,0h1.06a.15.15,0,0,1,.11,0,.16.16,0,0,1,0,.11,1.66,1.66,0,0,1-.32,1,1.9,1.9,0,0,1-.83.63,3.19,3.19,0,0,1-1.19.22A2.56,2.56,0,0,1,64.47,29Z"/><path class="cls-1" d="M69.31,29.34a.16.16,0,0,1-.06-.13V24.37a.19.19,0,0,1,0-.13.18.18,0,0,1,.14-.06H73a.2.2,0,0,1,.14.06.19.19,0,0,1,.05.13v.74a.22.22,0,0,1-.05.14.24.24,0,0,1-.14.05H70.6v.95h2.19a.17.17,0,0,1,.14.05.2.2,0,0,1,.06.14v.68a.2.2,0,0,1-.06.14.22.22,0,0,1-.14,0H70.6v1H73a.2.2,0,0,1,.14.06.22.22,0,0,1,0,.14v.73a.22.22,0,0,1,0,.14.24.24,0,0,1-.14,0H69.44A.16.16,0,0,1,69.31,29.34Z"/><path class="cls-1" d="M74.1,29.34a.16.16,0,0,1-.06-.13V24.37a.19.19,0,0,1,0-.13.18.18,0,0,1,.14-.06h.84a.27.27,0,0,1,.25.14l1.76,2.78V24.37a.19.19,0,0,1,0-.13.18.18,0,0,1,.14-.06h1a.16.16,0,0,1,.13.06.19.19,0,0,1,.05.13v4.84a.19.19,0,0,1-.05.13.16.16,0,0,1-.13.06h-.85a.27.27,0,0,1-.25-.14l-1.75-2.67v2.62a.18.18,0,0,1-.06.14.22.22,0,0,1-.14,0h-.94A.16.16,0,0,1,74.1,29.34Z"/><path class="cls-1" d="M80.62,29.35a.17.17,0,0,1-.05-.14V25.4H79.25a.2.2,0,0,1-.14-.06.19.19,0,0,1,0-.13v-.84a.19.19,0,0,1,0-.13.2.2,0,0,1,.14-.06h4a.18.18,0,0,1,.14.06.16.16,0,0,1,.06.13v.84a.16.16,0,0,1-.06.13.18.18,0,0,1-.14.06H82v3.81a.18.18,0,0,1-.06.14.19.19,0,0,1-.13,0h-1A.22.22,0,0,1,80.62,29.35Z"/><path class="cls-1" d="M84.21,29.34a.16.16,0,0,1-.06-.13V24.37a.19.19,0,0,1,0-.13.18.18,0,0,1,.14-.06h3.52a.2.2,0,0,1,.14.06.19.19,0,0,1,0,.13v.74a.22.22,0,0,1,0,.14.24.24,0,0,1-.14.05H85.5v.95h2.2a.15.15,0,0,1,.13.05.2.2,0,0,1,.06.14v.68a.2.2,0,0,1-.06.14.19.19,0,0,1-.13,0H85.5v1h2.42a.2.2,0,0,1,.14.06.22.22,0,0,1,0,.14v.73a.22.22,0,0,1,0,.14.24.24,0,0,1-.14,0H84.34A.18.18,0,0,1,84.21,29.34Z"/><path class="cls-1" d="M89,29.34a.16.16,0,0,1-.06-.13V24.37a.19.19,0,0,1,0-.13.18.18,0,0,1,.14-.06h2.05a2.39,2.39,0,0,1,1.54.45,1.53,1.53,0,0,1,.55,1.26,1.6,1.6,0,0,1-.24.89,1.55,1.55,0,0,1-.67.56l1,1.82a.13.13,0,0,1,0,.08.15.15,0,0,1,0,.11.16.16,0,0,1-.11,0h-1a.32.32,0,0,1-.31-.2l-.82-1.62h-.72v1.63a.22.22,0,0,1,0,.14.24.24,0,0,1-.14,0h-1A.16.16,0,0,1,89,29.34Zm2.17-2.86a.67.67,0,0,0,.49-.16.57.57,0,0,0,.17-.44.61.61,0,0,0-.17-.45.64.64,0,0,0-.49-.18h-.83v1.23Z"/></g></g></svg>